# Blender v2.83.0 OBJ File: 'TabletopCollider.blend'
# www.blender.org
mtllib MiniCollider.mtl
o 01-Base_Base
v 0.000000 -0.030000 -0.150000
v 0.000000 0.030000 -0.150000
v 0.039018 -0.030000 -0.147118
v 0.039018 0.030000 -0.147118
v 0.076537 -0.030000 -0.138582
v 0.076537 0.030000 -0.138582
v 0.111114 -0.030000 -0.124720
v 0.111114 0.030000 -0.124720
v 0.141421 -0.030000 -0.106066
v 0.141421 0.030000 -0.106066
v 0.166294 -0.030000 -0.083336
v 0.166294 0.030000 -0.083336
v 0.184776 -0.030000 -0.057403
v 0.184776 0.030000 -0.057403
v 0.196157 -0.030000 -0.029264
v 0.196157 0.030000 -0.029264
v 0.200000 -0.030000 -0.000000
v 0.200000 0.030000 -0.000000
v 0.196157 -0.030000 0.029264
v 0.196157 0.030000 0.029264
v 0.184776 -0.030000 0.057402
v 0.184776 0.030000 0.057402
v 0.166294 -0.030000 0.083336
v 0.166294 0.030000 0.083336
v 0.141421 -0.030000 0.106066
v 0.141421 0.030000 0.106066
v 0.111114 -0.030000 0.124720
v 0.111114 0.030000 0.124720
v 0.076537 -0.030000 0.138582
v 0.076537 0.030000 0.138582
v 0.039018 -0.030000 0.147118
v 0.039018 0.030000 0.147118
v -0.000000 -0.030000 0.150000
v -0.000000 0.030000 0.150000
v -0.039018 -0.030000 0.147118
v -0.039018 0.030000 0.147118
v -0.076537 -0.030000 0.138582
v -0.076537 0.030000 0.138582
v -0.111114 -0.030000 0.124720
v -0.111114 0.030000 0.124720
v -0.141421 -0.030000 0.106066
v -0.141421 0.030000 0.106066
v -0.166294 -0.030000 0.083335
v -0.166294 0.030000 0.083335
v -0.184776 -0.030000 0.057402
v -0.184776 0.030000 0.057402
v -0.196157 -0.030000 0.029263
v -0.196157 0.030000 0.029263
v -0.200000 -0.030000 -0.000000
v -0.200000 0.030000 -0.000000
v -0.196157 -0.030000 -0.029264
v -0.196157 0.030000 -0.029264
v -0.184776 -0.030000 -0.057403
v -0.184776 0.030000 -0.057403
v -0.166294 -0.030000 -0.083336
v -0.166294 0.030000 -0.083336
v -0.141421 -0.030000 -0.106066
v -0.141421 0.030000 -0.106066
v -0.111114 -0.030000 -0.124721
v -0.111114 0.030000 -0.124721
v -0.076536 -0.030000 -0.138582
v -0.076536 0.030000 -0.138582
v -0.039018 -0.030000 -0.147118
v -0.039018 0.030000 -0.147118
vt 0.980589 0.750428
vt 1.000053 0.750427
vt 1.000053 0.781670
vt 0.980589 0.781671
vt 1.000053 0.812912
vt 0.980589 0.812913
vt 1.000053 0.844155
vt 0.980589 0.844156
vt 1.000053 0.875397
vt 0.980589 0.875398
vt 1.000053 0.906640
vt 0.980589 0.906641
vt 1.000053 0.937882
vt 0.980589 0.937883
vt 1.000053 0.969125
vt 0.980589 0.969126
vt 1.000053 1.000367
vt 0.980589 1.000368
vt 0.980589 0.000608
vt 1.000053 0.000610
vt 1.000053 0.031853
vt 0.980589 0.031851
vt 1.000053 0.063095
vt 0.980589 0.063093
vt 1.000053 0.094337
vt 0.980589 0.094336
vt 1.000053 0.125580
vt 0.980589 0.125578
vt 1.000053 0.156822
vt 0.980589 0.156821
vt 1.000053 0.188065
vt 0.980589 0.188063
vt 1.000053 0.219307
vt 0.980589 0.219306
vt 1.000053 0.250549
vt 0.980589 0.250548
vt 1.000053 0.281792
vt 0.980589 0.281791
vt 1.000053 0.313034
vt 0.980589 0.313033
vt 1.000053 0.344276
vt 0.980589 0.344276
vt 1.000053 0.375519
vt 0.980589 0.375518
vt 1.000053 0.406761
vt 0.980589 0.406761
vt 1.000053 0.438004
vt 0.980589 0.438003
vt 1.000053 0.469246
vt 0.980589 0.469246
vt 1.000053 0.500488
vt 0.980589 0.500488
vt 1.000053 0.531731
vt 0.980589 0.531731
vt 1.000053 0.562973
vt 0.980589 0.562973
vt 1.000053 0.594216
vt 0.980589 0.594216
vt 1.000053 0.625458
vt 0.980589 0.625458
vt 1.000053 0.656700
vt 0.980589 0.656701
vt 1.000053 0.687943
vt 0.980589 0.687943
vt 0.709699 0.523157
vt 0.707788 0.497986
vt 0.710824 0.472926
vt 0.718691 0.448940
vt 0.731086 0.426950
vt 0.747533 0.407800
vt 0.767401 0.392226
vt 0.789924 0.380828
vt 0.814238 0.374043
vt 0.839409 0.372132
vt 0.864469 0.375168
vt 0.888455 0.383035
vt 0.910446 0.395430
vt 0.929596 0.411878
vt 0.945169 0.431744
vt 0.956567 0.454268
vt 0.963352 0.478582
vt 0.965263 0.503753
vt 0.962227 0.528813
vt 0.954360 0.552799
vt 0.941965 0.574789
vt 0.925518 0.593939
vt 0.905651 0.609513
vt 0.883127 0.620911
vt 0.858813 0.627696
vt 0.833642 0.629607
vt 0.808582 0.626570
vt 0.784596 0.618704
vt 0.762606 0.606309
vt 0.743456 0.589861
vt 0.727883 0.569994
vt 0.716484 0.547471
vt 1.000053 0.719185
vt 0.980589 0.719186
vt 0.967458 0.158318
vt 0.964176 0.183347
vt 0.956074 0.207255
vt 0.943464 0.229123
vt 0.926829 0.248111
vt 0.906810 0.263488
vt 0.884176 0.274664
vt 0.859796 0.281210
vt 0.834608 0.282874
vt 0.809579 0.279592
vt 0.785671 0.271490
vt 0.763803 0.258880
vt 0.744816 0.242245
vt 0.729439 0.222226
vt 0.718262 0.199592
vt 0.711716 0.175212
vt 0.710052 0.150024
vt 0.713335 0.124995
vt 0.721436 0.101088
vt 0.734047 0.079220
vt 0.750681 0.060232
vt 0.770700 0.044855
vt 0.793334 0.033678
vt 0.817714 0.027132
vt 0.842902 0.025469
vt 0.867932 0.028751
vt 0.891839 0.036853
vt 0.913707 0.049463
vt 0.932694 0.066097
vt 0.948072 0.086116
vt 0.959248 0.108750
vt 0.965794 0.133130
vn 0.0737 0.0000 -0.9973
vn 0.2218 0.0000 -0.9751
vn 0.3721 0.0000 -0.9282
vn 0.5242 0.0000 -0.8516
vn 0.6746 0.0000 -0.7382
vn 0.8144 0.0000 -0.5804
vn 0.9270 0.0000 -0.3750
vn 0.9915 0.0000 -0.1302
vn 0.9915 0.0000 0.1302
vn 0.9270 0.0000 0.3750
vn 0.8144 0.0000 0.5804
vn 0.6746 0.0000 0.7382
vn 0.5242 0.0000 0.8516
vn 0.3721 0.0000 0.9282
vn 0.2218 0.0000 0.9751
vn 0.0737 0.0000 0.9973
vn -0.0737 0.0000 0.9973
vn -0.2218 0.0000 0.9751
vn -0.3721 0.0000 0.9282
vn -0.5242 0.0000 0.8516
vn -0.6746 0.0000 0.7382
vn -0.8144 0.0000 0.5804
vn -0.9270 0.0000 0.3750
vn -0.9915 0.0000 0.1302
vn -0.9915 0.0000 -0.1302
vn -0.9270 0.0000 -0.3750
vn -0.8144 0.0000 -0.5804
vn -0.6746 0.0000 -0.7382
vn -0.5242 0.0000 -0.8516
vn -0.3721 0.0000 -0.9282
vn 0.0000 1.0000 0.0000
vn -0.2218 0.0000 -0.9751
vn -0.0737 0.0000 -0.9973
vn 0.0000 -1.0000 0.0000
usemtl Material.001
s off
f 1/1/1 2/2/1 4/3/1 3/4/1
f 3/4/2 4/3/2 6/5/2 5/6/2
f 5/6/3 6/5/3 8/7/3 7/8/3
f 7/8/4 8/7/4 10/9/4 9/10/4
f 9/10/5 10/9/5 12/11/5 11/12/5
f 11/12/6 12/11/6 14/13/6 13/14/6
f 13/14/7 14/13/7 16/15/7 15/16/7
f 15/16/8 16/15/8 18/17/8 17/18/8
f 17/19/9 18/20/9 20/21/9 19/22/9
f 19/22/10 20/21/10 22/23/10 21/24/10
f 21/24/11 22/23/11 24/25/11 23/26/11
f 23/26/12 24/25/12 26/27/12 25/28/12
f 25/28/13 26/27/13 28/29/13 27/30/13
f 27/30/14 28/29/14 30/31/14 29/32/14
f 29/32/15 30/31/15 32/33/15 31/34/15
f 31/34/16 32/33/16 34/35/16 33/36/16
f 33/36/17 34/35/17 36/37/17 35/38/17
f 35/38/18 36/37/18 38/39/18 37/40/18
f 37/40/19 38/39/19 40/41/19 39/42/19
f 39/42/20 40/41/20 42/43/20 41/44/20
f 41/44/21 42/43/21 44/45/21 43/46/21
f 43/46/22 44/45/22 46/47/22 45/48/22
f 45/48/23 46/47/23 48/49/23 47/50/23
f 47/50/24 48/49/24 50/51/24 49/52/24
f 49/52/25 50/51/25 52/53/25 51/54/25
f 51/54/26 52/53/26 54/55/26 53/56/26
f 53/56/27 54/55/27 56/57/27 55/58/27
f 55/58/28 56/57/28 58/59/28 57/60/28
f 57/60/29 58/59/29 60/61/29 59/62/29
f 59/62/30 60/61/30 62/63/30 61/64/30
f 4/65/31 2/66/31 64/67/31 62/68/31 60/69/31 58/70/31 56/71/31 54/72/31 52/73/31 50/74/31 48/75/31 46/76/31 44/77/31 42/78/31 40/79/31 38/80/31 36/81/31 34/82/31 32/83/31 30/84/31 28/85/31 26/86/31 24/87/31 22/88/31 20/89/31 18/90/31 16/91/31 14/92/31 12/93/31 10/94/31 8/95/31 6/96/31
f 61/64/32 62/63/32 64/97/32 63/98/32
f 63/98/33 64/97/33 2/2/33 1/1/33
f 1/99/34 3/100/34 5/101/34 7/102/34 9/103/34 11/104/34 13/105/34 15/106/34 17/107/34 19/108/34 21/109/34 23/110/34 25/111/34 27/112/34 29/113/34 31/114/34 33/115/34 35/116/34 37/117/34 39/118/34 41/119/34 43/120/34 45/121/34 47/122/34 49/123/34 51/124/34 53/125/34 55/126/34 57/127/34 59/128/34 61/129/34 63/130/34
o 02-Card-Front_CardFront
v -0.100000 0.030000 -0.000000
v 0.100000 0.030000 -0.000000
v -0.100000 1.410000 0.000000
v 0.100000 1.410000 0.000000
vt 0.001715 0.000000
vt 0.699608 0.000000
vt 0.699608 0.998986
vt 0.001715 0.998986
vn 0.0000 -0.0000 1.0000
usemtl Material.001
s off
f 65/131/35 66/132/35 68/133/35 67/134/35
o 03-Card-Back_CardBack
v 0.100000 0.030000 0.000000
v -0.100000 0.030000 0.000000
v 0.100000 1.410000 -0.000000
v -0.100000 1.410000 -0.000000
vt 0.699608 0.000000
vt 0.001715 0.000000
vt 0.001715 0.998986
vt 0.699608 0.998986
vn -0.0000 -0.0000 -1.0000
usemtl Material.003
s off
f 69/135/36 70/136/36 72/137/36 71/138/36
